<mxfile host="65bd71144e">
    <diagram id="TPHnQmanJ90qg3LgI37T" name="Page-1">
        <mxGraphModel dx="1216" dy="779" grid="1" gridSize="10" guides="1" tooltips="1" connect="1" arrows="1" fold="1" page="1" pageScale="1" pageWidth="1200" pageHeight="1600" background="#B3B3B3" math="0" shadow="0">
            <root>
                <mxCell id="0"/>
                <mxCell id="1" parent="0"/>
                <mxCell id="9" style="edgeStyle=none;html=1;entryX=0;entryY=0;entryDx=0;entryDy=60;entryPerimeter=0;" parent="1" source="2" target="4" edge="1">
                    <mxGeometry relative="1" as="geometry"/>
                </mxCell>
                <mxCell id="2" value="&lt;div&gt;&lt;br&gt;&lt;/div&gt;Front-End&lt;br&gt;React, Redux,&amp;nbsp;" style="verticalAlign=top;align=left;spacingTop=8;spacingLeft=2;spacingRight=12;shape=cube;size=10;direction=south;fontStyle=4;html=1;rounded=0;shadow=0;comic=0;labelBackgroundColor=none;strokeWidth=1;fontFamily=Verdana;fontSize=12" parent="1" vertex="1">
                    <mxGeometry x="310" y="30" width="130" height="80" as="geometry"/>
                </mxCell>
                <mxCell id="12" style="edgeStyle=none;html=1;entryX=0;entryY=0;entryDx=0;entryDy=60;entryPerimeter=0;" parent="1" source="4" target="10" edge="1">
                    <mxGeometry relative="1" as="geometry"/>
                </mxCell>
                <mxCell id="13" style="edgeStyle=none;html=1;entryX=0;entryY=0;entryDx=0;entryDy=60;entryPerimeter=0;" parent="1" source="4" target="8" edge="1">
                    <mxGeometry relative="1" as="geometry"/>
                </mxCell>
                <mxCell id="80" style="edgeStyle=none;sketch=0;html=1;entryX=-0.012;entryY=0.463;entryDx=0;entryDy=0;entryPerimeter=0;fontSize=7;flowAnimation=1;" parent="1" source="4" target="18" edge="1">
                    <mxGeometry relative="1" as="geometry"/>
                </mxCell>
                <mxCell id="4" value="Back-End:&lt;br&gt;main.go&amp;nbsp;&lt;br&gt;&lt;br&gt;&lt;font style=&quot;font-size: 10px;&quot;&gt;&lt;font style=&quot;font-size: 10px;&quot;&gt;&lt;font style=&quot;font-size: 10px;&quot;&gt;1. Retrive OpenAi key and port&lt;br&gt;&lt;/font&gt;2. Call Initiate database func&lt;br&gt;&lt;/font&gt;3.Start server&lt;br&gt;4.Chat handler&lt;br&gt;5.Admin handler&lt;/font&gt;" style="verticalAlign=top;align=left;spacingTop=8;spacingLeft=2;spacingRight=12;shape=cube;size=10;direction=south;fontStyle=4;html=1;rounded=0;shadow=0;comic=0;labelBackgroundColor=none;strokeWidth=1;fontFamily=Verdana;fontSize=12" parent="1" vertex="1">
                    <mxGeometry x="310" y="150" width="160" height="160" as="geometry"/>
                </mxCell>
                <mxCell id="8" value="admin Routes" style="verticalAlign=top;align=left;spacingTop=8;spacingLeft=2;spacingRight=12;shape=cube;size=10;direction=south;fontStyle=4;html=1;rounded=0;shadow=0;comic=0;labelBackgroundColor=none;strokeWidth=1;fontFamily=Verdana;fontSize=12" parent="1" vertex="1">
                    <mxGeometry x="520" y="230" width="120" height="50" as="geometry"/>
                </mxCell>
                <mxCell id="10" value="chat Routes" style="verticalAlign=top;align=left;spacingTop=8;spacingLeft=2;spacingRight=12;shape=cube;size=10;direction=south;fontStyle=4;html=1;rounded=0;shadow=0;comic=0;labelBackgroundColor=none;strokeWidth=1;fontFamily=Verdana;fontSize=12" parent="1" vertex="1">
                    <mxGeometry x="160" y="240" width="120" height="50" as="geometry"/>
                </mxCell>
                <mxCell id="18" value="Services:" style="verticalAlign=top;align=left;spacingTop=8;spacingLeft=2;spacingRight=12;shape=cube;size=10;direction=south;fontStyle=4;html=1;rounded=0;shadow=0;comic=0;labelBackgroundColor=none;strokeWidth=1;fontFamily=Verdana;fontSize=12" parent="1" vertex="1">
                    <mxGeometry x="60" y="340" width="590" height="310" as="geometry"/>
                </mxCell>
                <mxCell id="21" value="&lt;b&gt;&lt;font style=&quot;font-size: 13px;&quot;&gt;AI-Chat.go&lt;/font&gt;&lt;/b&gt;" style="swimlane;fontStyle=0;childLayout=stackLayout;horizontal=1;startSize=30;horizontalStack=0;resizeParent=1;resizeParentMax=0;resizeLast=0;collapsible=1;marginBottom=0;whiteSpace=wrap;html=1;fontSize=10;" parent="1" vertex="1">
                    <mxGeometry x="190" y="380" width="90" height="140" as="geometry"/>
                </mxCell>
                <mxCell id="22" value="&lt;font style=&quot;font-size: 10px;&quot;&gt;Process user input and return response&lt;/font&gt;" style="text;strokeColor=default;fillColor=none;align=left;verticalAlign=middle;spacingLeft=4;spacingRight=4;overflow=hidden;points=[[0,0.5],[1,0.5]];portConstraint=eastwest;rotatable=0;whiteSpace=wrap;html=1;fontSize=10;" parent="21" vertex="1">
                    <mxGeometry y="30" width="90" height="50" as="geometry"/>
                </mxCell>
                <mxCell id="23" value="&lt;font style=&quot;font-size: 10px;&quot;&gt;Retrive&amp;nbsp; last&amp;nbsp; 5 histories&lt;/font&gt;" style="text;strokeColor=default;fillColor=none;align=left;verticalAlign=middle;spacingLeft=4;spacingRight=4;overflow=hidden;points=[[0,0.5],[1,0.5]];portConstraint=eastwest;rotatable=0;whiteSpace=wrap;html=1;strokeWidth=1;fontSize=10;" parent="21" vertex="1">
                    <mxGeometry y="80" width="90" height="60" as="geometry"/>
                </mxCell>
                <mxCell id="62" style="edgeStyle=none;sketch=0;html=1;fontSize=6;" parent="1" source="29" target="37" edge="1">
                    <mxGeometry relative="1" as="geometry"/>
                </mxCell>
                <mxCell id="82" style="edgeStyle=none;sketch=0;html=1;entryX=0;entryY=0;entryDx=40;entryDy=180;entryPerimeter=0;fontSize=7;" parent="1" source="29" target="75" edge="1">
                    <mxGeometry relative="1" as="geometry">
                        <Array as="points">
                            <mxPoint x="120" y="750"/>
                        </Array>
                    </mxGeometry>
                </mxCell>
                <mxCell id="29" value="&lt;font style=&quot;font-size: 12px;&quot;&gt;&lt;b&gt;chatRepository&lt;/b&gt;&lt;/font&gt;" style="swimlane;fontStyle=0;childLayout=stackLayout;horizontal=1;startSize=30;horizontalStack=0;resizeParent=1;resizeParentMax=0;resizeLast=0;collapsible=1;marginBottom=0;whiteSpace=wrap;html=1;fontSize=10;" parent="1" vertex="1">
                    <mxGeometry x="70" y="545" width="90" height="80" as="geometry"/>
                </mxCell>
                <mxCell id="30" value="&lt;font style=&quot;font-size: 10px;&quot;&gt;SaveChatRecord&amp;nbsp; into ChatHistory table&lt;/font&gt;" style="text;strokeColor=default;fillColor=none;align=left;verticalAlign=middle;spacingLeft=4;spacingRight=4;overflow=hidden;points=[[0,0.5],[1,0.5]];portConstraint=eastwest;rotatable=0;whiteSpace=wrap;html=1;fontSize=10;" parent="29" vertex="1">
                    <mxGeometry y="30" width="90" height="50" as="geometry"/>
                </mxCell>
                <mxCell id="32" style="edgeStyle=none;html=1;exitX=0;exitY=0.5;exitDx=0;exitDy=0;fontSize=6;flowAnimation=0;" parent="1" source="22" target="33" edge="1">
                    <mxGeometry relative="1" as="geometry">
                        <mxPoint x="100" y="455" as="targetPoint"/>
                    </mxGeometry>
                </mxCell>
                <mxCell id="33" value="&lt;font&gt;&lt;b style=&quot;&quot;&gt;Handle Comunication with OpenAI&lt;/b&gt;&lt;/font&gt;" style="swimlane;fontStyle=0;childLayout=stackLayout;horizontal=1;startSize=30;horizontalStack=0;resizeParent=1;resizeParentMax=0;resizeLast=0;collapsible=1;marginBottom=0;whiteSpace=wrap;html=1;strokeColor=default;strokeWidth=1;fontSize=9;" parent="1" vertex="1">
                    <mxGeometry x="70" y="380" width="100" height="130" as="geometry">
                        <mxRectangle x="30" y="395" width="50" height="30" as="alternateBounds"/>
                    </mxGeometry>
                </mxCell>
                <mxCell id="35" value="&lt;font style=&quot;font-size: 10px;&quot;&gt;GetChatGPTResponse func interacts with API&amp;nbsp; and retrieves the response&lt;/font&gt;" style="text;strokeColor=none;fillColor=none;align=left;verticalAlign=middle;spacingLeft=4;spacingRight=4;overflow=hidden;points=[[0,0.5],[1,0.5]];portConstraint=eastwest;rotatable=0;whiteSpace=wrap;html=1;strokeWidth=1;fontSize=10;" parent="33" vertex="1">
                    <mxGeometry y="30" width="100" height="60" as="geometry"/>
                </mxCell>
                <mxCell id="37" value="&lt;font style=&quot;font-size: 10px;&quot;&gt;Return the content / return error message&lt;/font&gt;" style="text;strokeColor=default;fillColor=none;align=left;verticalAlign=middle;spacingLeft=4;spacingRight=4;overflow=hidden;points=[[0,0.5],[1,0.5]];portConstraint=eastwest;rotatable=0;whiteSpace=wrap;html=1;strokeWidth=1;fontSize=10;" parent="33" vertex="1">
                    <mxGeometry y="90" width="100" height="40" as="geometry"/>
                </mxCell>
                <mxCell id="87" style="edgeStyle=none;sketch=0;html=1;entryX=0;entryY=0;entryDx=60;entryDy=0;entryPerimeter=0;fontSize=7;" parent="1" source="43" target="75" edge="1">
                    <mxGeometry relative="1" as="geometry">
                        <Array as="points">
                            <mxPoint x="525" y="770"/>
                        </Array>
                    </mxGeometry>
                </mxCell>
                <mxCell id="43" value="&lt;font style=&quot;font-size: 13px;&quot;&gt;&lt;b&gt;admin&lt;/b&gt;&lt;/font&gt;" style="swimlane;fontStyle=0;childLayout=stackLayout;horizontal=1;startSize=30;horizontalStack=0;resizeParent=1;resizeParentMax=0;resizeLast=0;collapsible=1;marginBottom=0;whiteSpace=wrap;html=1;" parent="1" vertex="1">
                    <mxGeometry x="490" y="370" width="100" height="250" as="geometry"/>
                </mxCell>
                <mxCell id="44" value="&lt;div style=&quot;line-height: 100%; font-size: 11px;&quot;&gt;&lt;span style=&quot;font-size: 11px; background-color: initial;&quot;&gt;Register new students:&lt;/span&gt;&lt;/div&gt;&lt;font style=&quot;font-size: 11px;&quot;&gt;&lt;div style=&quot;font-size: 11px; line-height: 100%;&quot;&gt;&lt;span style=&quot;background-color: initial; font-size: 11px;&quot;&gt;1. student ID&lt;/span&gt;&lt;/div&gt;&lt;div style=&quot;font-size: 11px; line-height: 100%;&quot;&gt;&lt;span style=&quot;background-color: initial; font-size: 11px;&quot;&gt;2.student&#39;s name&lt;/span&gt;&lt;/div&gt;&lt;div style=&quot;font-size: 11px; line-height: 100%;&quot;&gt;&lt;span style=&quot;background-color: initial; font-size: 11px;&quot;&gt;3.phone number&lt;/span&gt;&lt;/div&gt;&lt;div style=&quot;font-size: 11px; line-height: 100%;&quot;&gt;&lt;span style=&quot;background-color: initial; font-size: 11px;&quot;&gt;4. email&lt;/span&gt;&lt;/div&gt;&lt;div style=&quot;font-size: 11px; line-height: 100%;&quot;&gt;&lt;br style=&quot;font-size: 11px;&quot;&gt;&lt;/div&gt;&lt;/font&gt;" style="text;strokeColor=default;fillColor=none;align=left;verticalAlign=middle;spacingLeft=4;spacingRight=4;overflow=hidden;points=[[0,0.5],[1,0.5]];portConstraint=eastwest;rotatable=0;whiteSpace=wrap;html=1;spacingTop=0;fontSize=11;" parent="43" vertex="1">
                    <mxGeometry y="30" width="100" height="70" as="geometry"/>
                </mxCell>
                <mxCell id="56" value="&lt;font style=&quot;font-size: 11px;&quot;&gt;Search Students:&lt;br style=&quot;font-size: 11px;&quot;&gt;1.Name (clickable for info)&lt;br style=&quot;font-size: 11px;&quot;&gt;2.ID&lt;br style=&quot;font-size: 11px;&quot;&gt;3.Phone Number&lt;br style=&quot;font-size: 11px;&quot;&gt;&lt;br style=&quot;font-size: 11px;&quot;&gt;&lt;/font&gt;" style="text;strokeColor=default;fillColor=none;align=left;verticalAlign=middle;spacingLeft=4;spacingRight=4;overflow=hidden;points=[[0,0.5],[1,0.5]];portConstraint=eastwest;rotatable=0;whiteSpace=wrap;html=1;fontSize=11;" parent="43" vertex="1">
                    <mxGeometry y="100" width="100" height="80" as="geometry"/>
                </mxCell>
                <mxCell id="74" value="&lt;font style=&quot;font-size: 11px;&quot;&gt;Create Lesson:&lt;br style=&quot;font-size: 11px;&quot;&gt;1. Text&lt;br style=&quot;font-size: 11px;&quot;&gt;2.Image&lt;br style=&quot;font-size: 11px;&quot;&gt;3.Web Links (restrict to&amp;nbsp; url)&lt;br style=&quot;font-size: 11px;&quot;&gt;&lt;/font&gt;" style="text;strokeColor=default;fillColor=none;align=left;verticalAlign=middle;spacingLeft=4;spacingRight=4;overflow=hidden;points=[[0,0.5],[1,0.5]];portConstraint=eastwest;rotatable=0;whiteSpace=wrap;html=1;fontSize=11;" parent="43" vertex="1">
                    <mxGeometry y="180" width="100" height="70" as="geometry"/>
                </mxCell>
                <mxCell id="52" style="edgeStyle=none;html=1;exitX=0;exitY=0;exitDx=50;exitDy=65;exitPerimeter=0;fontSize=6;flowAnimation=1;" parent="1" source="10" target="21" edge="1">
                    <mxGeometry relative="1" as="geometry"/>
                </mxCell>
                <mxCell id="48" style="edgeStyle=none;html=1;entryX=0.5;entryY=0;entryDx=0;entryDy=0;fontSize=6;flowAnimation=1;" parent="1" source="8" target="43" edge="1">
                    <mxGeometry relative="1" as="geometry"/>
                </mxCell>
                <mxCell id="83" style="edgeStyle=none;sketch=0;html=1;entryX=0.495;entryY=1.014;entryDx=0;entryDy=0;entryPerimeter=0;fontSize=7;" parent="1" source="75" target="23" edge="1">
                    <mxGeometry relative="1" as="geometry">
                        <Array as="points">
                            <mxPoint x="220" y="680"/>
                        </Array>
                    </mxGeometry>
                </mxCell>
                <mxCell id="75" value="SQLite Data Storage&lt;br&gt;chatbot.db" style="verticalAlign=top;align=left;spacingTop=8;spacingLeft=2;spacingRight=12;shape=cube;size=10;direction=south;fontStyle=4;html=1;rounded=0;shadow=0;comic=0;labelBackgroundColor=none;strokeWidth=1;fontFamily=Verdana;fontSize=12" parent="1" vertex="1">
                    <mxGeometry x="180" y="710" width="180" height="70" as="geometry"/>
                </mxCell>
                <mxCell id="86" style="edgeStyle=none;sketch=0;html=1;entryX=0.516;entryY=-0.01;entryDx=0;entryDy=0;entryPerimeter=0;fontSize=7;" parent="1" source="76" target="75" edge="1">
                    <mxGeometry relative="1" as="geometry">
                        <Array as="points">
                            <mxPoint x="390" y="750"/>
                        </Array>
                    </mxGeometry>
                </mxCell>
                <mxCell id="76" value="&lt;b&gt;&lt;font style=&quot;font-size: 13px;&quot;&gt;dbConnection.go&lt;/font&gt;&lt;/b&gt;" style="swimlane;fontStyle=0;childLayout=stackLayout;horizontal=1;startSize=26;fillColor=none;horizontalStack=0;resizeParent=1;resizeParentMax=0;resizeLast=0;collapsible=1;marginBottom=0;html=1;strokeColor=default;strokeWidth=1;fontSize=11;" parent="1" vertex="1">
                    <mxGeometry x="300" y="395" width="140" height="160" as="geometry"/>
                </mxCell>
                <mxCell id="77" value="&lt;font style=&quot;font-size: 10px;&quot;&gt;Initialize the database connection&lt;/font&gt;" style="text;strokeColor=none;fillColor=none;align=left;verticalAlign=top;spacingLeft=4;spacingRight=4;overflow=hidden;rotatable=0;points=[[0,0.5],[1,0.5]];portConstraint=eastwest;whiteSpace=wrap;html=1;strokeWidth=1;fontSize=10;" parent="76" vertex="1">
                    <mxGeometry y="26" width="140" height="44" as="geometry"/>
                </mxCell>
                <mxCell id="78" value="&lt;font style=&quot;font-size: 10px;&quot;&gt;Create tables if not existe (avoid duplicate)&lt;/font&gt;" style="text;strokeColor=default;fillColor=none;align=left;verticalAlign=top;spacingLeft=4;spacingRight=4;overflow=hidden;rotatable=0;points=[[0,0.5],[1,0.5]];portConstraint=eastwest;whiteSpace=wrap;html=1;strokeWidth=1;fontSize=10;" parent="76" vertex="1">
                    <mxGeometry y="70" width="140" height="50" as="geometry"/>
                </mxCell>
                <mxCell id="81" value="&lt;font style=&quot;font-size: 10px;&quot;&gt;Close database&lt;/font&gt;" style="text;strokeColor=default;fillColor=none;align=left;verticalAlign=top;spacingLeft=4;spacingRight=4;overflow=hidden;rotatable=0;points=[[0,0.5],[1,0.5]];portConstraint=eastwest;whiteSpace=wrap;html=1;strokeWidth=1;fontSize=10;" parent="76" vertex="1">
                    <mxGeometry y="120" width="140" height="40" as="geometry"/>
                </mxCell>
                <mxCell id="88" value="&lt;font color=&quot;#259193&quot; style=&quot;font-size: 14px;&quot;&gt;Back-End Architecture Design&lt;/font&gt;" style="text;strokeColor=none;align=center;fillColor=none;html=1;verticalAlign=middle;whiteSpace=wrap;rounded=0;strokeWidth=1;fontSize=7;" parent="1" vertex="1">
                    <mxGeometry x="50" y="30" width="160" height="150" as="geometry"/>
                </mxCell>
            </root>
        </mxGraphModel>
    </diagram>
</mxfile>